<svg id="sort-az" xmlns="http://www.w3.org/2000/svg" width="12" height="10" viewBox="0 0 12 10">
  <path id="Path_1235" data-name="Path 1235" d="M6,8A1,1,0,0,1,7,7H17a1,1,0,0,1,0,2H7A1,1,0,0,1,6,8Z" transform="translate(-6 -7)" fill="#182352"/>
  <path id="Path_1236" data-name="Path 1236" d="M8,12a1,1,0,0,1,1-1h6a1,1,0,0,1,0,2H9A1,1,0,0,1,8,12Z" transform="translate(-6 -7)" fill="#182352"/>
  <path id="Path_1237" data-name="Path 1237" d="M11,15a1,1,0,0,0,0,2h2a1,1,0,0,0,0-2Z" transform="translate(-6 -7)" fill="#182352"/>
</svg>
