<svg id="Icon_Search_Filled" data-name="Icon / Search / Filled" xmlns="http://www.w3.org/2000/svg" width="24" height="24" viewBox="0 0 24 24">
  <rect id="Box" width="24" height="24" fill="none"/>
  <path id="Icon_Search" data-name="Icon / Search" d="M415.5-1404h-.794l-.276-.274A6.469,6.469,0,0,0,416-1408.5a6.5,6.5,0,0,0-6.5-6.5,6.5,6.5,0,0,0-6.5,6.5,6.5,6.5,0,0,0,6.5,6.5,6.47,6.47,0,0,0,4.225-1.566l.276.274v.792l5,4.991L420.49-1399l-4.988-5Zm-6,0a4.5,4.5,0,0,1-4.5-4.5,4.5,4.5,0,0,1,4.5-4.5,4.5,4.5,0,0,1,4.5,4.5,4.5,4.5,0,0,1-4.5,4.5Z" transform="translate(-400 1418)" fill="#6cc78e" fill-rule="evenodd"/>
</svg>
